<svg xmlns="http://www.w3.org/2000/svg" viewBox="0 0 841.9 595.3">
  <g fill="#61DAFB">
    <path d="M666.3 296.5c0-32.5-40.7-63.3-103.1-82.4 14.4-63.6 8-114.2-20.2-130.4-6.5-3.8-14.1-5.6-22.4-5.6v22.3c4.6 0 8.3.9 11.4 2.6 13.6 7.8 19.5 37.5 14.9 75.7-1.1 9.4-2.9 19.3-5.1 29.4-19.6-4.8-41-8.5-63.5-10.9-13.5-18.5-27.5-35.3-41.6-50 32.6-30.3 63.2-46.9 84-46.9V78c-27.5 0-63.5 19.6-99.9 53.6-36.4-34-72.4-53.6-99.9-53.6v22.3c20.7 0 51.4 16.5 84 46.9-14.2 14.7-28.2 31.5-41.6 50-22.6 2.4-44 6.1-63.5 10.9-2.2-10.1-4-19.9-5.1-29.4-4.7-38.2 1.1-67.9 14.9-75.7 3-1.8 6.9-2.6 11.4-2.6V78c-8.3 0-15.9 1.8-22.4 5.6-28.2 16.2-34.6 66.8-20.2 130.4-62.4 19.2-103.1 49.9-103.1 82.4 0 32.5 40.7 63.3 103.1 82.4-14.4 63.6-8 114.2 20.2 130.4 6.5 3.8 14.1 5.6 22.4 5.6 27.5 0 63.5-19.6 99.9-53.6 36.4 34 72.4 53.6 99.9 53.6 8.3 0 15.9-1.8 22.4-5.6 28.2-16.2 34.6-66.8 20.2-130.4 62.4-19.2 103.1-49.9 103.1-82.4zM520.5 241.7c-3.7 12.9-8.3 26.2-13.5 39.5-4.1-8-8.4-16-13.1-24-4.6-8-9.5-15.8-14.4-23.4 14.2 2.1 27.9 4.7 40.9 7.9zM421.2 430c-9.3 7.5-18.6 14.2-27.9 20.2-9.3-6-18.6-12.7-27.9-20.2-9.3-7.5-18.2-15.7-26.6-24.4 8.6.7 17.4 1.1 26.4 1.1 17.9 0 35.5-1.3 52.2-3.6 1.1 0 2.2-.1 3.2-.2 8.4 8.7 17.3 16.9 26.6 24.4zM321.9 353.4c-13.9-1.2-27.2-2.9-39.8-5.1 3.7-12.9 8.3-26.2 13.5-39.5 4.1 8 8.4 16 13.1 24 4.6 8 9.5 15.8 14.4 23.4-0.4-0.1-0.8-0.1-1.2-0.1zM421.2 163c9.3-7.5 18.6-14.2 27.9-20.2 9.3 6 18.6 12.7 27.9 20.2 9.3 7.5 18.2 15.7 26.6 24.4-8.6-.7-17.4-1.1-26.4-1.1-17.9 0-35.5 1.3-52.2 3.6-1.1 0-2.2.1-3.2.2-8.4-8.7-17.3-16.9-26.6-24.4zM540 266.8c7.8 13.5 14.3 27.5 19.4 41.6-5.1 14.1-11.6 28.1-19.4 41.6-7.8 13.5-16.6 26.3-26.2 38.3-14.7 1.6-30 2.5-45.8 2.5-15.8 0-31.1-.9-45.8-2.5-9.6-12-18.4-24.8-26.2-38.3-7.8-13.5-14.3-27.5-19.4-41.6 5.1-14.1 11.6-28.1 19.4-41.6 7.8-13.5 16.6-26.3 26.2-38.3 14.7-1.6 30-2.5 45.8-2.5 15.8 0 31.1.9 45.8 2.5 9.6 12 18.4 24.8 26.2 38.3zM421.2 274.7c18.6 0 33.7 15.1 33.7 33.7 0 18.6-15.1 33.7-33.7 33.7-18.6 0-33.7-15.1-33.7-33.7 0-18.6 15.1-33.7 33.7-33.7zM250.5 241.7c13-3.2 26.7-5.9 40.9-7.9-4.9 7.6-9.8 15.4-14.4 23.4-4.6 8-9 16-13.1 24-5.2-13.3-9.8-26.6-13.4-39.5zM212.6 387c-35.7-13.6-59.2-32.7-59.2-50.5 0-17.8 23.5-36.9 59.2-50.5 8.6-3.3 18-6.3 28-9 7.9 26.4 19.2 54.2 33.8 82.4-14.6 28.2-25.9 56-33.8 82.4-10-2.7-19.4-5.7-28-9zM271.2 476.7c-4.6 38.2 1.1 67.9 14.9 75.7 3 1.8 6.9 2.6 11.4 2.6 20.7 0 51.4-16.5 84-46.9-14.2-14.7-28.2-31.5-41.6-50-22.6-2.4-44-6.1-63.5-10.9-2.2 10.1-4 19.9-5.2 29.5zM497 508.1c32.6 30.3 63.2 46.9 84 46.9 4.6 0 8.3-.9 11.4-2.6 13.6-7.8 19.5-37.5 14.9-75.7-1.1-9.4-2.9-19.3-5.1-29.4-19.6 4.8-41 8.5-63.5 10.9-13.5 18.5-27.5 35.3-41.7 49.9zM631.7 387c-8.6 3.3-18 6.3-28 9-7.9-26.4-19.2-54.2-33.8-82.4 14.6-28.2 25.9-56 33.8-82.4 10 2.7 19.4 5.7 28 9 35.7 13.6 59.2 32.7 59.2 50.5 0 17.8-23.5 36.9-59.2 50.5z"/>
  </g>
</svg>
